<?xml version="1.0" encoding="utf-8"?>
<!-- Generator: Adobe Illustrator 15.0.0, SVG Export Plug-In  -->
<!DOCTYPE svg PUBLIC "-//W3C//DTD SVG 1.1//EN" "http://www.w3.org/Graphics/SVG/1.1/DTD/svg11.dtd" [
	<!ENTITY ns_flows "http://ns.adobe.com/Flows/1.0/">
]>
<svg version="1.1"
	 xmlns="http://www.w3.org/2000/svg" xmlns:xlink="http://www.w3.org/1999/xlink" xmlns:a="http://ns.adobe.com/AdobeSVGViewerExtensions/3.0/"
	 x="0px" y="0px" width="89px" height="45px" viewBox="-0.717 -0.352 89 45" enable-background="new -0.717 -0.352 89 45"
	 xml:space="preserve">
<defs>
</defs>
<path fill="#8A8A8A" d="M56.342,43.709c-7.702,0-31.14,0-31.14-12.57C25.202,13.969,39.171,0,56.342,0
	C73.512,0,87.48,13.969,87.48,31.139C87.48,39.01,75.84,43.709,56.342,43.709z M56.342,5c-14.413,0-26.14,11.727-26.14,26.139
	c0,4.882,9.283,7.57,26.14,7.57c16.978,0,26.139-3.9,26.139-7.57C82.48,16.727,70.755,5,56.342,5z"/>
<path fill="#8A8A8A" d="M14.504,40.738c-0.246,0-0.496,0-0.754-0.002c-5.526-0.021-9.938-0.262-12.269-3.061
	c-1.375-1.65-1.787-3.879-1.26-6.812c1.557-8.642,7.496-14.007,15.503-14.007c0.008,0,0.015,0,0.022,0
	c9.177,0.012,13.164,8.225,14.13,12.51c0.304,1.348-0.278,2.579-1.625,2.883c-1.35,0.302-3.25,0.148-3.05-1.805
	c0.037-0.366-2.016-8.578-9.461-8.588c-0.006,0-0.012,0-0.018,0c-8.165,0-10.162,7.571-10.581,9.893
	c-0.138,0.771-0.299,2.15,0.181,2.727c1.024,1.23,5.854,1.326,8.446,1.26c5.537-0.141,6.277-0.373,6.36-0.39
	c1.333-0.28,2.665,0.562,2.967,1.892c0.301,1.33-0.5,2.651-1.825,2.976C20.905,40.304,19.901,40.58,14.504,40.738z"/>
<path fill="#8A8A8A" d="M11.785,26.438c0,0-2.13,0.177-2.219,2.486c-0.088,2.309,1.51,2.042,2.575,2.219
	c1.065,0.178,2.219-0.711,2.041-2.353C14.007,27.147,13.916,26.35,11.785,26.438z"/>
</svg>
